<?xml version="1.0" encoding="UTF-8" standalone="no"?>
<svg
   version="1.1"
   width="8.8947in"
   height="2.8315in"
   viewBox="0 0 640.4153 203.8691"
   id="svg11"
   sodipodi:docname="SeaBank.cdr"
   xmlns:inkscape="http://www.inkscape.org/namespaces/inkscape"
   xmlns:sodipodi="http://sodipodi.sourceforge.net/DTD/sodipodi-0.dtd"
   xmlns="http://www.w3.org/2000/svg"
   xmlns:svg="http://www.w3.org/2000/svg">
  <defs
     id="defs11" />
  <sodipodi:namedview
     id="namedview11"
     pagecolor="#ffffff"
     bordercolor="#000000"
     borderopacity="0.25"
     inkscape:showpageshadow="2"
     inkscape:pageopacity="0.0"
     inkscape:pagecheckerboard="0"
     inkscape:deskcolor="#d1d1d1"
     inkscape:document-units="in" />
  <g
     id="Layer1000">
    <path
       d="  M94.1402,0.0002 C42.2817,0.0002 0.2358,42.0452 0.2358,93.8009 C0.2358,114.3586 6.8479,133.3669 18.1078,148.8627 C22.0334,147.0032 26.1655,145.3501 30.6078,144.0073 C19.6571,130.2674 13.1497,112.8083 13.1497,93.9037 C13.1497,49.3796 49.4096,13.1197 93.9337,13.1197 C138.4578,13.1197 174.7178,49.3796 174.7178,93.9037 C174.7178,122.4162 159.8425,147.6227 137.3216,161.9822 C139.4913,161.9822 141.6601,161.9822 143.9337,161.8785 C151.2680,161.4654 158.1894,158.1594 164.0783,155.4738 C178.9536,138.8418 188.0447,117.9739 188.0447,93.8009 C188.0447,42.0452 145.9997,0.0002 94.1402,0.0002 Z"
       style="fill-rule: evenodd; fill: #ea5f00; "
       id="path1" />
    <path
       d="  M153.6424,187.1944 C148.3741,188.9502 143.2085,189.9837 138.2504,190.0865 C117.2797,190.9135 102.1969,184.6116 87.7346,178.4135 C74.8207,172.9386 62.7347,167.7731 47.8584,168.5991 C33.8092,169.7354 23.9947,177.5875 23.5817,177.8968 C20.6897,180.1693 20.2757,184.4051 22.5492,187.2972 C24.8217,190.1902 29.1603,190.7070 32.0534,188.4335 C32.1561,188.4335 39.1812,182.8558 48.8919,182.1326 C60.2547,181.6158 70.6886,185.8516 82.5691,191.0163 C96.1016,196.8014 111.1844,203.2060 131.3290,203.8265 C133.8080,203.9293 136.2881,203.8265 138.8699,203.7228 C145.1717,203.5162 151.6801,202.2772 158.1885,200.1074 C161.7001,198.8674 163.5596,195.0456 162.4233,191.5330 C161.0805,187.8139 157.1550,185.9544 153.6424,187.1944 Z"
       style="fill-rule: evenodd; fill: #2673dd; "
       id="path2" />
    <path
       d="  M175.2335,156.9146 C168.8289,161.3569 155.9159,168.8978 141.1434,169.4146 C122.3416,170.2406 110.0481,164.7657 96.9286,159.1871 C83.1886,153.1955 68.9328,146.9974 47.5491,147.9272 C27.7138,148.6504 10.8752,160.0141 2.6111,166.6253 C-0.3847,169.0015 -0.9015,173.4429 1.5776,176.4387 C3.9539,179.4345 8.3962,179.9513 11.3920,177.4722 C18.3134,171.8936 32.2599,162.3894 48.0649,161.7699 C66.3500,161.0467 78.4370,166.3150 91.2462,171.8936 C103.8500,177.3685 116.7630,183.0508 135.3583,183.3601 C137.4243,183.3601 139.4904,183.3601 141.6592,183.2573 C159.9443,182.5341 175.4401,173.5466 183.1884,168.2783 C186.3907,166.1085 187.1140,161.7699 184.9442,158.5676 C182.7745,155.4681 178.3331,154.6420 175.2335,156.9146 Z"
       style="fill-rule: evenodd; fill: #2673dd; "
       id="path3" />
    <path
       d="  M99.4067,152.2734 L99.6141,152.3762 C107.7746,155.6823 115.6257,158.8846 124.8197,160.6413 C150.3364,148.9674 168.1047,123.2442 168.1047,93.3898 C168.2084,52.6876 134.9443,19.5262 94.2421,19.5262 C53.5398,19.5262 20.1719,52.6876 20.1719,93.3898 C20.1719,111.9842 27.0933,129.0293 38.4570,141.9432 C40.7296,141.5293 43.0021,141.3227 45.3784,141.1162 C68.9319,139.7735 85.1509,146.3846 99.4067,152.2734 Z Z M104.6760,102.4800 C103.4360,101.2410 101.8867,100.1037 100.0272,99.2777 C98.1676,98.3479 96.1016,97.6247 93.9318,96.9014 C91.6593,96.1782 89.5932,95.3521 87.7337,94.5261 C83.3951,92.8731 79.7788,90.3940 76.7830,86.8815 C73.7872,83.4726 72.4444,79.1331 72.4444,73.8647 C72.5481,70.4559 73.2714,67.4601 74.5104,64.8773 C75.8532,62.2945 77.6100,60.1257 79.8825,58.4727 C82.1551,56.8197 84.6341,55.4769 87.4234,54.6499 C90.2127,53.8238 93.2086,53.4108 96.3081,53.4108 L96.5146,53.4108 C101.2662,53.5136 105.5020,54.4434 109.0146,56.0964 C112.5271,57.8522 115.8322,59.9182 118.9318,62.2945 L111.5974,72.8322 C109.5313,71.2819 107.2578,70.0429 104.9853,69.0094 C102.6100,67.9769 99.7169,67.3564 96.3081,67.1499 C93.7253,66.9434 91.3490,67.4601 89.3867,68.7001 C87.3207,69.8364 86.2872,71.5922 86.2872,73.8647 C86.2872,75.2075 86.5974,76.4475 87.3207,77.4801 C88.0439,78.5136 89.0765,79.4433 90.3165,80.1666 C91.5555,80.9926 92.8993,81.5094 94.2421,82.1289 C95.5848,82.6456 97.0314,83.1624 98.2704,83.6791 C100.9569,84.6089 103.6425,85.7452 106.3290,87.0880 C109.0146,88.4308 111.3909,90.0838 113.5597,91.9433 C115.7295,93.8028 117.3825,96.0754 118.7253,98.6582 C119.9643,101.2410 120.5848,104.2368 120.4811,107.7484 C120.3783,111.1582 119.6550,114.2567 118.4150,116.8395 C117.0722,119.5251 115.2127,121.6949 112.9402,123.5544 C110.5639,125.4139 107.8783,126.7567 104.7788,127.6865 C101.6802,128.6163 98.2704,129.0293 94.6551,128.9265 C91.2462,128.8228 88.1467,128.4097 85.3574,127.4800 C82.5681,126.5502 79.9853,125.5177 77.7128,124.2777 C75.4402,123.0377 73.5807,121.7986 71.9277,120.4558 C70.2746,119.3186 69.1384,118.2861 68.4151,117.4591 L75.9570,106.8196 C78.4360,109.1949 81.3291,111.1582 84.7379,112.7075 C88.1467,114.3605 91.6593,115.1865 95.2746,115.1865 C98.3741,115.2902 100.9569,114.5670 103.2295,113.2242 C105.5020,111.8814 106.5346,109.8144 106.6383,107.2326 C106.6383,105.2693 106.0188,103.7200 104.6760,102.4800 Z"
       style="fill-rule: evenodd; fill: #ea5f00; "
       id="path4" />
    <path
       d="  M260.1487,93.0719 C257.9780,91.1086 255.6026,89.5593 252.9171,88.1128 C250.2315,86.7700 247.5450,85.5300 244.7557,84.6003 C243.4129,84.0845 242.0701,83.5677 240.6236,83.0510 C239.1780,82.5342 237.8343,81.9147 236.5952,81.0877 C235.3552,80.3654 234.4255,79.4356 233.5994,78.4021 C232.8762,77.3696 232.4632,76.1296 232.4632,74.7868 C232.5659,72.5143 233.5994,70.7575 235.5617,69.6212 C237.6278,68.4850 239.9003,67.9682 242.5869,68.1747 C245.9957,68.3822 248.9915,69.0017 251.3678,70.0342 C253.7431,71.1715 256.0166,72.4105 258.0827,73.9598 L265.5208,63.4231 C262.4203,60.9441 259.0124,58.8780 255.5008,57.1213 C251.9873,55.3655 247.7515,54.5385 242.9999,54.4357 L242.7934,54.4357 C239.6938,54.3320 236.6980,54.7459 233.8059,55.6757 C230.9129,56.6055 228.4339,57.8445 226.1613,59.4975 C223.8888,61.1506 222.1320,63.3203 220.7892,65.9022 C219.4464,68.4850 218.7232,71.5845 218.6204,74.9933 C218.5167,80.2617 219.9632,84.6003 222.9590,88.0101 C225.9548,91.4189 229.5701,94.0017 233.9087,95.6547 C235.8720,96.4807 237.9380,97.3068 240.2106,97.9272 C242.3804,98.6505 244.4464,99.4765 246.3059,100.4063 C248.1655,101.3361 249.7148,102.3686 250.9548,103.7123 C252.1938,105.0551 252.9171,106.6044 252.8143,108.5677 C252.7106,111.1505 251.5743,113.2165 249.4045,114.5593 C247.2357,115.9021 244.5492,116.6253 241.4506,116.5216 C237.8343,116.4188 234.2190,115.5918 230.8101,114.0426 C227.4013,112.3895 224.4055,110.4272 221.9255,108.1537 L214.2809,118.7942 C215.0041,119.5174 216.2441,120.6537 217.7934,121.9974 C219.4464,123.3402 221.3060,124.5793 223.5785,125.8193 C225.8511,127.0593 228.4339,128.0918 231.2232,129.0216 C234.1162,129.9514 237.2148,130.3644 240.6236,130.4681 C244.2399,130.5718 247.6487,130.1579 250.7483,129.2281 C253.8468,128.2983 256.6361,126.9555 259.0124,125.0960 C261.3887,123.2365 263.2463,120.9639 264.5910,118.2784 C265.9328,115.5918 266.6571,112.4933 266.7608,109.0844 C266.8626,105.5719 266.2431,102.4723 264.9013,99.8895 C263.9705,97.2040 262.3194,94.9314 260.1487,93.0719 Z"
       style="fill-rule: evenodd; fill: #ea5f00; "
       id="path5" />
    <path
       d="  M447.4400,90.2903 C448.0595,89.6708 448.7837,88.8447 449.4042,88.1215 C450.1255,87.2945 450.7460,86.3647 451.2618,85.1257 C451.8823,83.8857 452.2963,82.5429 452.7102,80.8898 C453.0205,79.2368 453.2260,77.2745 453.2260,74.8982 C453.2260,72.6257 452.8120,70.3522 451.9860,68.1834 C451.1600,66.0136 450.0237,64.0513 448.4744,62.2945 C446.9242,60.5387 445.1674,58.9894 442.9976,57.7494 C440.8298,56.5094 438.4535,55.6834 435.6632,55.3731 C433.9074,55.1666 431.9451,54.9601 429.8791,54.9601 C427.7084,54.8564 425.5415,54.8564 423.0605,54.8564 L403.0196,54.9601 L403.0196,130.5795 L423.2660,130.5795 C425.7470,130.5795 428.1233,130.5795 430.7051,130.5795 C433.2870,130.5795 435.2512,130.5795 436.9032,130.4758 C439.6935,130.1665 442.2753,129.5460 444.7563,128.5135 C447.1297,127.4800 449.4042,126.0335 451.1600,124.1739 C453.0205,122.3154 454.4660,120.0428 455.6023,117.5628 C456.6339,114.9800 457.2544,112.0879 457.2544,108.8856 C457.2544,103.8238 456.2228,99.7945 454.2576,96.7986 C452.2963,93.6991 450.0237,91.5303 447.4400,90.2903 Z Z M415.6224,67.8731 L422.1307,67.8731 C424.3005,67.8731 426.2628,67.8731 427.9168,67.9769 C429.5688,68.0796 431.1191,68.1834 432.2554,68.2861 C434.8372,68.5964 436.9032,69.4234 438.4535,70.7662 C440.1056,72.0052 440.9316,73.8647 440.8298,76.1373 C440.9316,79.0303 440.0037,81.2001 438.4535,82.4391 C436.7995,83.6791 434.7325,84.5052 432.1507,84.8154 C430.9107,85.0219 429.4651,85.1257 427.8130,85.1257 C426.1610,85.1257 424.1968,85.1257 422.0289,85.1257 L415.5205,85.1257 L415.5205,67.8731 L415.6224,67.8731 Z Z M441.6558,113.9475 C439.7953,115.7033 436.7995,116.7368 432.6665,116.9433 C431.4293,117.0460 429.8791,117.1498 427.8130,117.0460 C425.8507,117.0460 423.7847,117.0460 421.8205,117.0460 L415.5205,117.0460 L415.5205,97.5219 L421.8205,97.5219 C423.7847,97.5219 425.6423,97.5219 427.3991,97.4182 C429.1549,97.3154 430.7051,97.3154 431.9451,97.4182 C435.9735,97.6247 438.9693,98.5554 441.1400,100.2075 C443.3079,101.8605 444.4461,104.1330 444.4461,107.1289 C444.5479,109.9182 443.6172,112.1917 441.6558,113.9475 Z"
       style="fill-rule: evenodd; fill: #ea5f00; "
       id="path6" />
    <path
       d="  M328.8486,89.8773 C327.4021,85.9517 325.3361,82.5419 322.6505,79.8563 C320.0677,77.0670 316.9682,75.0010 313.4556,73.5545 C309.9431,72.1089 306.3268,71.3857 302.4012,71.3857 C297.6515,71.3857 293.4147,72.2117 289.7984,73.6582 C286.0803,75.2075 282.9798,77.3773 280.5027,80.0629 C278.0217,82.7494 276.1612,85.8480 274.8194,89.3605 C273.5794,92.8731 272.9599,96.6949 272.9599,100.7242 C272.9599,105.1665 273.7859,109.1949 275.3362,112.9140 C276.8854,116.5303 279.0562,119.6288 281.7398,122.3154 C284.4264,124.8972 287.5269,126.9632 291.0385,128.4097 C294.5510,129.7525 298.2691,130.4758 302.1947,130.4758 C305.8110,130.4758 309.0133,130.1665 311.6998,129.5460 C314.3854,129.0293 316.8635,128.3070 318.9295,127.4800 C320.9956,126.5502 322.9598,125.4139 324.6119,124.2777 C326.2668,123.1414 327.8142,122.0051 329.3644,120.8688 L322.6505,111.4674 C321.7198,112.1907 320.7900,112.9140 319.6537,113.7400 C318.4137,114.5670 316.8635,115.2902 315.2114,116.0135 C313.5594,116.6330 311.6998,117.1498 309.5291,117.5628 C307.4630,117.8730 305.0868,118.0795 302.5049,117.9758 C301.1631,117.8730 299.7176,117.6656 298.1673,117.3563 C296.6171,116.9433 295.1705,116.3228 293.8268,115.4968 C292.4850,114.5670 291.2440,113.4307 290.1087,112.1907 C288.9724,110.8479 288.1464,109.1949 287.6277,107.2326 L287.5269,106.7158 L330.6044,106.7158 L330.7091,103.4098 C330.9147,98.2442 330.2942,93.8028 328.8486,89.8773 Z Z M287.1119,95.3521 L287.2166,94.9391 C287.4222,93.2861 287.9379,92.4601 288.4566,91.3238 C288.5584,91.1163 288.6622,90.9098 288.7669,90.7033 C289.6937,89.1540 290.8329,87.9140 292.1747,86.8815 C293.5185,85.8480 295.0668,85.1247 296.7208,84.7117 C298.4766,84.1949 300.2333,83.8857 301.9891,83.8857 C306.1212,83.9884 309.5291,85.1247 312.0101,87.3982 C313.2501,88.4308 314.2817,89.4643 315.1077,90.6005 C315.9356,91.7368 316.4514,93.0796 316.6579,94.8354 L316.7617,95.3521 L287.1119,95.3521 Z"
       style="fill-rule: evenodd; fill: #ea5f00; "
       id="path7" />
    <path
       d="  M379.7764,77.1708 L378.9504,76.4475 C377.1946,74.8973 374.9201,73.6582 372.3383,72.8312 C369.8582,71.9024 366.8644,71.3857 363.4536,71.3857 C359.6318,71.3857 356.0155,72.1089 352.7114,73.5545 C349.4053,74.8973 346.5132,76.9643 344.1370,79.5471 C341.6569,82.1289 339.7964,85.3312 338.3509,89.0503 C337.0091,92.6666 336.2848,96.7986 336.2848,101.3437 C336.2848,105.3731 337.0091,109.1949 338.3509,112.7075 C339.7964,116.2200 341.6569,119.2158 344.1370,121.9014 C346.6150,124.4842 349.4053,126.5502 352.7114,128.2032 C356.0155,129.6498 359.5271,130.3730 363.4536,130.3730 C366.8644,130.3730 369.8582,129.9590 372.3383,129.0293 C374.9201,128.0995 377.1946,126.7567 378.9504,125.1037 L379.7764,124.2777 L379.7764,130.2693 L393.1034,130.2693 L393.1034,73.0387 L379.7764,73.0387 L379.7764,77.1708 Z Z M378.5364,108.1624 C377.7104,110.1247 376.5750,111.8814 375.2303,113.2242 C373.8885,114.5670 372.3383,115.4968 370.5825,116.2200 C368.8257,116.8395 366.9662,117.1498 365.1086,117.1498 C360.8718,117.1498 357.3592,115.7033 354.4672,112.9140 C351.5732,109.9182 350.2313,105.9926 350.2313,101.1372 C350.2313,96.3856 351.6769,92.4601 354.4672,89.3605 C357.3592,86.2610 360.8718,84.7117 365.1086,84.7117 C367.0699,84.7117 368.9304,85.1247 370.5825,85.8480 C372.4420,86.5712 373.9903,87.6047 375.2303,89.0503 C376.5750,90.3931 377.7104,92.1498 378.5364,94.3186 C379.3624,96.3856 379.7764,98.6582 379.7764,101.3437 C379.7764,103.8228 379.3624,106.0963 378.5364,108.1624 Z"
       style="fill-rule: evenodd; fill: #ea5f00; "
       id="path8" />
    <path
       d="  M504.6725,77.1708 L503.8474,76.4475 C502.0906,74.8973 499.8190,73.6582 497.2343,72.8312 C494.7562,71.9024 491.7604,71.3857 488.3526,71.3857 C484.5307,71.3857 480.9144,72.1089 477.6074,73.5545 C474.3014,74.8973 471.4093,76.9643 469.0330,79.5471 C466.5530,82.1289 464.6954,85.3312 463.2489,89.0503 C461.9051,92.6666 461.1828,96.7986 461.1828,101.3437 C461.1828,105.3731 461.9051,109.1949 463.2489,112.7075 C464.6954,116.2200 466.5530,119.2158 469.0330,121.9014 C471.5140,124.4842 474.3014,126.5502 477.6074,128.2032 C480.9144,129.6498 484.4260,130.3730 488.3526,130.3730 C491.7604,130.3730 494.7562,129.9590 497.2343,129.0293 C499.8190,128.0995 502.0906,126.7567 503.8474,125.1037 L504.6725,124.2777 L504.6725,130.2693 L517.9994,130.2693 L517.9994,73.3480 L504.6725,73.3480 L504.6725,77.1708 Z Z M503.4325,108.1624 C502.6064,110.1247 501.4711,111.8814 500.1293,113.2242 C498.7846,114.5670 497.2343,115.4968 495.4785,116.2200 C493.7227,116.8395 491.8642,117.1498 490.0046,117.1498 C485.7678,117.1498 482.2563,115.7033 479.3642,112.9140 C476.4721,109.9182 475.1274,105.9926 475.1274,101.1372 C475.1274,96.3856 476.5730,92.4601 479.3642,89.3605 C482.2563,86.2610 485.7678,84.7117 490.0046,84.7117 C491.9660,84.7117 493.7227,85.1247 495.4785,85.8480 C497.3390,86.5712 498.8893,87.6047 500.1293,89.0503 C501.4711,90.3931 502.6064,92.1498 503.4325,94.3186 C504.2614,96.3856 504.6725,98.6582 504.6725,101.3437 C504.6725,103.8228 504.2614,106.0963 503.4325,108.1624 Z"
       style="fill-rule: evenodd; fill: #ea5f00; "
       id="path9" />
    <path
       d="  M615.3118,98.0406 L639.5894,71.4913 L622.0267,71.4913 L601.9858,93.2890 L601.9858,54.0332 L588.5570,54.0332 L588.5570,130.4787 L601.9858,130.4787 L601.9858,113.1234 L606.4281,108.1652 L623.7825,130.4787 L640.4155,130.4787 L615.3118,98.0406 Z"
       style="fill-rule: evenodd; fill: #ea5f00; "
       id="path10" />
    <path
       d="  M576.5718,84.7136 C575.3318,81.2010 572.9584,78.1025 569.5477,75.5197 C566.1398,72.9369 561.7993,71.5941 556.6356,71.5941 C553.9491,71.5941 551.1589,72.0071 548.3715,72.8341 C545.9952,73.5564 543.7227,74.6927 541.6566,76.3457 L541.6566,73.3499 L528.1222,73.3499 L528.1222,130.4777 L541.6566,130.4777 L541.6566,99.8992 C541.7584,97.8331 541.9669,95.8708 542.1724,94.0113 C542.4826,92.0480 542.9984,90.3959 543.8245,88.9494 C544.6505,87.5029 545.8905,86.3666 547.4408,85.4369 C548.9910,84.5071 550.9533,83.9903 553.3296,83.8876 C556.3254,83.7838 558.7017,84.6108 560.5622,86.1601 C562.4198,87.8131 563.6598,89.8792 564.2793,92.5648 C564.5896,93.8048 564.7961,95.4578 565.0045,97.5238 C565.1054,99.4861 565.2101,102.3792 565.2101,106.2010 L565.2101,130.4777 L578.5370,130.4777 L578.5370,102.8950 C578.5370,99.1759 578.4323,95.8708 578.2268,93.1843 C578.0184,90.2922 577.5026,87.5029 576.5718,84.7136 Z"
       style="fill-rule: evenodd; fill: #ea5f00; "
       id="path11" />
  </g>
</svg>
